<svg xmlns="http://www.w3.org/2000/svg" xmlns:xlink="http://www.w3.org/1999/xlink" width="1366" zoomAndPan="magnify" viewBox="0 0 1024.5 550.499984" height="734" preserveAspectRatio="xMidYMid meet" version="1.0"><defs><clipPath id="4da0b1f0ef"><path d="M 0.214844 0 L 1023.785156 0 L 1023.785156 550 L 0.214844 550 Z M 0.214844 0 " clip-rule="nonzero"/></clipPath><clipPath id="c932857739"><path d="M 784.289062 530 L 956 530 L 956 550 L 784.289062 550 Z M 784.289062 530 " clip-rule="nonzero"/></clipPath><clipPath id="a1e65889e3"><path d="M 806 337.011719 L 934 337.011719 L 934 364 L 806 364 Z M 806 337.011719 " clip-rule="nonzero"/></clipPath></defs><g clip-path="url(#4da0b1f0ef)"><path fill="#ffffff" d="M 0.214844 0 L 1023.785156 0 L 1023.785156 550 L 0.214844 550 Z M 0.214844 0 " fill-opacity="1" fill-rule="nonzero"/><path fill="#fff8ee" d="M 0.214844 0 L 1023.785156 0 L 1023.785156 550 L 0.214844 550 Z M 0.214844 0 " fill-opacity="1" fill-rule="nonzero"/></g><path fill="#dc4e4f" d="M 960.058594 405.34375 C 960.199219 406.972656 959.953125 408.515625 959.511719 409.863281 C 957.667969 406.707031 954.730469 404.6875 950.695312 403.78125 L 953.863281 396.105469 C 953.863281 396.105469 959.597656 399.777344 960.058594 405.34375 Z M 960.058594 405.34375 " fill-opacity="1" fill-rule="nonzero"/><path fill="#d2d2d1" d="M 901.140625 413.496094 L 910.734375 413.496094 L 910.734375 423.105469 L 901.140625 423.105469 Z M 901.140625 413.496094 " fill-opacity="1" fill-rule="nonzero"/><path fill="#d2d2d1" d="M 891.542969 423.105469 L 901.140625 423.105469 L 901.140625 432.695312 L 891.542969 432.695312 Z M 891.542969 423.105469 " fill-opacity="1" fill-rule="nonzero"/><path fill="#d2d2d1" d="M 881.964844 413.496094 L 891.542969 413.496094 L 891.542969 423.105469 L 881.964844 423.105469 Z M 881.964844 413.496094 " fill-opacity="1" fill-rule="nonzero"/><path fill="#d2d2d1" d="M 872.371094 423.105469 L 881.964844 423.105469 L 881.964844 432.695312 L 872.371094 432.695312 Z M 872.371094 423.105469 " fill-opacity="1" fill-rule="nonzero"/><path fill="#65b39f" d="M 901.140625 423.105469 L 910.734375 423.105469 L 910.734375 432.695312 L 901.140625 432.695312 Z M 901.140625 423.105469 " fill-opacity="1" fill-rule="nonzero"/><path fill="#65b39f" d="M 891.542969 413.496094 L 901.140625 413.496094 L 901.140625 423.105469 L 891.542969 423.105469 Z M 891.542969 413.496094 " fill-opacity="1" fill-rule="nonzero"/><path fill="#65b39f" d="M 881.964844 423.105469 L 891.542969 423.105469 L 891.542969 432.695312 L 881.964844 432.695312 Z M 881.964844 423.105469 " fill-opacity="1" fill-rule="nonzero"/><path fill="#65b39f" d="M 872.371094 413.496094 L 881.964844 413.496094 L 881.964844 423.105469 L 872.371094 423.105469 Z M 872.371094 413.496094 " fill-opacity="1" fill-rule="nonzero"/><path fill="#ffc05a" d="M 865.394531 423.105469 C 865.394531 423.492188 865.355469 423.871094 865.28125 424.25 C 865.207031 424.628906 865.09375 424.996094 864.949219 425.351562 C 864.800781 425.707031 864.621094 426.046875 864.40625 426.367188 C 864.191406 426.6875 863.949219 426.980469 863.675781 427.253906 C 863.40625 427.527344 863.109375 427.769531 862.789062 427.984375 C 862.46875 428.199219 862.132812 428.378906 861.777344 428.527344 C 861.421875 428.675781 861.054688 428.785156 860.675781 428.859375 C 860.300781 428.9375 859.917969 428.972656 859.535156 428.972656 C 859.148438 428.972656 858.769531 428.9375 858.390625 428.859375 C 858.011719 428.785156 857.648438 428.675781 857.292969 428.527344 C 856.9375 428.378906 856.597656 428.199219 856.277344 427.984375 C 855.957031 427.769531 855.660156 427.527344 855.390625 427.253906 C 855.117188 426.980469 854.875 426.6875 854.660156 426.367188 C 854.449219 426.046875 854.265625 425.707031 854.121094 425.351562 C 853.972656 424.996094 853.859375 424.628906 853.785156 424.25 C 853.710938 423.871094 853.671875 423.492188 853.671875 423.105469 C 853.671875 422.71875 853.710938 422.339844 853.785156 421.960938 C 853.859375 421.582031 853.972656 421.214844 854.121094 420.859375 C 854.265625 420.503906 854.449219 420.164062 854.660156 419.84375 C 854.875 419.523438 855.117188 419.226562 855.390625 418.957031 C 855.660156 418.683594 855.957031 418.441406 856.277344 418.226562 C 856.597656 418.011719 856.9375 417.832031 857.292969 417.683594 C 857.648438 417.535156 858.011719 417.425781 858.390625 417.351562 C 858.769531 417.273438 859.148438 417.238281 859.535156 417.238281 C 859.917969 417.238281 860.300781 417.273438 860.675781 417.351562 C 861.054688 417.425781 861.421875 417.535156 861.777344 417.683594 C 862.132812 417.832031 862.46875 418.011719 862.789062 418.226562 C 863.109375 418.441406 863.40625 418.683594 863.675781 418.957031 C 863.949219 419.226562 864.191406 419.523438 864.40625 419.84375 C 864.621094 420.164062 864.800781 420.503906 864.949219 420.859375 C 865.09375 421.214844 865.207031 421.582031 865.28125 421.960938 C 865.355469 422.339844 865.394531 422.71875 865.394531 423.105469 Z M 865.394531 423.105469 " fill-opacity="1" fill-rule="nonzero"/><path fill="#c3ddda" d="M 845.441406 423.105469 C 845.441406 423.492188 845.402344 423.871094 845.328125 424.25 C 845.253906 424.628906 845.140625 424.996094 844.996094 425.351562 C 844.847656 425.707031 844.667969 426.046875 844.453125 426.367188 C 844.238281 426.6875 843.996094 426.980469 843.726562 427.253906 C 843.453125 427.527344 843.15625 427.769531 842.835938 427.984375 C 842.515625 428.199219 842.179688 428.378906 841.824219 428.527344 C 841.46875 428.675781 841.101562 428.785156 840.722656 428.859375 C 840.347656 428.9375 839.964844 428.972656 839.582031 428.972656 C 839.195312 428.972656 838.816406 428.9375 838.4375 428.859375 C 838.058594 428.785156 837.695312 428.675781 837.339844 428.527344 C 836.984375 428.378906 836.644531 428.199219 836.324219 427.984375 C 836.003906 427.769531 835.710938 427.527344 835.4375 427.253906 C 835.164062 426.980469 834.921875 426.6875 834.707031 426.367188 C 834.496094 426.046875 834.3125 425.707031 834.167969 425.351562 C 834.019531 424.996094 833.910156 424.628906 833.832031 424.25 C 833.757812 423.871094 833.722656 423.492188 833.722656 423.105469 C 833.722656 422.71875 833.757812 422.339844 833.832031 421.960938 C 833.910156 421.582031 834.019531 421.214844 834.167969 420.859375 C 834.3125 420.503906 834.496094 420.164062 834.707031 419.84375 C 834.921875 419.523438 835.164062 419.226562 835.4375 418.957031 C 835.710938 418.683594 836.003906 418.441406 836.324219 418.226562 C 836.644531 418.011719 836.984375 417.832031 837.339844 417.683594 C 837.695312 417.535156 838.058594 417.425781 838.4375 417.351562 C 838.816406 417.273438 839.195312 417.238281 839.582031 417.238281 C 839.964844 417.238281 840.347656 417.273438 840.722656 417.351562 C 841.101562 417.425781 841.46875 417.535156 841.824219 417.683594 C 842.179688 417.832031 842.515625 418.011719 842.835938 418.226562 C 843.15625 418.441406 843.453125 418.683594 843.726562 418.957031 C 843.996094 419.226562 844.238281 419.523438 844.453125 419.84375 C 844.667969 420.164062 844.847656 420.503906 844.996094 420.859375 C 845.140625 421.214844 845.253906 421.582031 845.328125 421.960938 C 845.402344 422.339844 845.441406 422.71875 845.441406 423.105469 Z M 845.441406 423.105469 " fill-opacity="1" fill-rule="nonzero"/><path fill="#9c9d9c" d="M 947.453125 425.710938 L 947.453125 442.90625 C 947.453125 447.144531 944.035156 450.566406 939.804688 450.566406 L 933.09375 450.566406 L 933.09375 409.878906 L 935.804688 409.878906 C 938.015625 409.878906 939.929688 411.527344 940.160156 413.746094 C 940.601562 418.265625 941.964844 421.863281 944.941406 424.203125 C 945.683594 424.789062 946.515625 425.285156 947.453125 425.710938 Z M 947.453125 425.710938 " fill-opacity="1" fill-rule="nonzero"/><path fill="#be3a3c" d="M 933.09375 457.941406 L 942.445312 457.941406 L 942.445312 468.523438 L 933.09375 468.523438 Z M 933.09375 457.941406 " fill-opacity="1" fill-rule="nonzero"/><path fill="#9c9d9c" d="M 996.902344 434.488281 C 997.148438 461.433594 994.972656 502.207031 972.238281 502.207031 C 950.179688 502.207031 949.878906 468.523438 942.441406 468.523438 L 942.441406 457.941406 C 958.058594 457.941406 955.367188 495.382812 972.949219 493.644531 C 995.539062 491.429688 990.546875 403.78125 978.136719 386.125 C 966.875 370.097656 955.242188 376.585938 955.242188 376.585938 C 953.367188 373.769531 950.003906 372.652344 946.125 372.722656 C 949.347656 366.429688 964.554688 364.410156 974.789062 370.082031 C 991.945312 379.566406 996.636719 407.523438 996.902344 434.488281 Z M 996.902344 434.488281 " fill-opacity="1" fill-rule="nonzero"/><path fill="#be3a3c" d="M 955.242188 376.585938 L 952.640625 383.289062 C 950.128906 380.558594 947.171875 379.246094 943.683594 379.636719 L 946.125 372.722656 C 950.003906 372.652344 953.367188 373.769531 955.242188 376.585938 Z M 955.242188 376.585938 " fill-opacity="1" fill-rule="nonzero"/><path fill="#be3a3c" d="M 950.710938 420.410156 C 948.691406 419.71875 946.496094 420.675781 945.628906 422.625 L 944.941406 424.1875 L 944.941406 424.203125 C 941.964844 421.863281 940.601562 418.265625 940.160156 413.746094 C 939.929688 411.527344 938.015625 409.878906 935.804688 409.878906 L 933.09375 409.878906 L 943.683594 379.636719 C 947.171875 379.246094 950.128906 380.558594 952.640625 383.289062 C 953.84375 386.445312 955.917969 388.871094 959.015625 390.46875 C 960.609375 391.300781 962.007812 392.523438 962.925781 394.085938 C 964.820312 397.347656 967.425781 403.125 966.46875 409.402344 C 965.6875 414.417969 963.566406 417.929688 961.707031 420.144531 C 960.128906 422.042969 957.546875 422.75 955.207031 421.953125 Z M 959.511719 409.863281 C 959.953125 408.515625 960.199219 406.972656 960.058594 405.34375 C 959.597656 399.777344 953.863281 396.105469 953.863281 396.105469 L 950.695312 403.78125 L 947.453125 411.601562 L 952.925781 413.796875 C 955.3125 414.753906 958.023438 413.621094 959.03125 411.246094 C 959.210938 410.800781 959.386719 410.339844 959.511719 409.863281 Z M 959.511719 409.863281 " fill-opacity="1" fill-rule="nonzero"/><path fill="#d6eae8" d="M 828.976562 374.335938 L 910.734375 374.335938 L 910.734375 405.996094 L 828.976562 405.996094 Z M 828.976562 374.335938 " fill-opacity="1" fill-rule="nonzero"/><g clip-path="url(#c932857739)"><path fill="#d6eae8" d="M 955.402344 536.9375 L 955.402344 550.515625 C 955.402344 554.132812 952.464844 557.074219 948.835938 557.074219 L 790.859375 557.074219 C 787.230469 557.074219 784.289062 554.132812 784.289062 550.515625 L 784.289062 536.9375 C 784.289062 533.300781 787.230469 530.359375 790.859375 530.359375 L 948.835938 530.359375 C 952.464844 530.359375 955.402344 533.300781 955.402344 536.9375 Z M 955.402344 536.9375 " fill-opacity="1" fill-rule="nonzero"/></g><g clip-path="url(#a1e65889e3)"><path fill="#d6eae8" d="M 933.09375 351.539062 L 933.09375 363.078125 L 806.597656 363.078125 L 806.597656 351.539062 C 806.597656 343.648438 812.988281 337.25 820.867188 337.25 L 918.824219 337.25 C 926.703125 337.25 933.09375 343.648438 933.09375 351.539062 Z M 933.09375 351.539062 " fill-opacity="1" fill-rule="nonzero"/></g><path fill="#dc4e4f" d="M 806.597656 363.078125 L 806.597656 530.359375 L 933.09375 530.359375 L 933.09375 363.078125 Z M 833.722656 423.105469 C 833.722656 419.859375 836.339844 417.238281 839.582031 417.238281 C 842.820312 417.238281 845.441406 419.859375 845.441406 423.105469 C 845.441406 426.347656 842.820312 428.972656 839.582031 428.972656 C 836.339844 428.972656 833.722656 426.347656 833.722656 423.105469 Z M 853.671875 423.105469 C 853.671875 419.859375 856.292969 417.238281 859.535156 417.238281 C 862.757812 417.238281 865.394531 419.859375 865.394531 423.105469 C 865.394531 426.347656 862.757812 428.972656 859.535156 428.972656 C 856.292969 428.972656 853.671875 426.347656 853.671875 423.105469 Z M 872.371094 432.695312 L 872.371094 413.496094 L 910.734375 413.496094 L 910.734375 432.695312 Z M 828.976562 374.335938 L 910.734375 374.335938 L 910.734375 405.996094 L 828.976562 405.996094 Z M 828.976562 374.335938 " fill-opacity="1" fill-rule="nonzero"/></svg>