<svg xmlns="http://www.w3.org/2000/svg" xmlns:xlink="http://www.w3.org/1999/xlink" width="150" zoomAndPan="magnify" viewBox="0 0 112.5 112.499997" height="150" preserveAspectRatio="xMidYMid meet" version="1.0"><defs><clipPath id="579c76eb26"><path d="M 0 0 L 112.003906 0 L 112.003906 112.003906 L 0 112.003906 Z M 0 0 " clip-rule="nonzero"/></clipPath></defs><g clip-path="url(#579c76eb26)"><path fill="#f7f7f7" d="M 56 0 C 86.929688 0 112.003906 25.070312 112.003906 56 C 112.003906 86.929688 86.929688 112.003906 56 112.003906 C 25.070312 112.003906 0 86.929688 0 56 C 0 25.070312 25.070312 0 56 0 Z M 33.601562 61.601562 L 64.882812 61.601562 L 56 70.484375 C 53.816406 72.667969 53.816406 76.21875 56 78.402344 C 58.183594 80.585938 61.734375 80.585938 63.917969 78.402344 L 82.359375 59.960938 C 84.550781 57.769531 84.550781 54.226562 82.359375 52.042969 L 63.917969 33.601562 C 61.734375 31.417969 58.183594 31.417969 56 33.601562 C 53.816406 35.785156 53.816406 39.335938 56 41.519531 L 64.882812 50.402344 L 33.601562 50.402344 C 30.507812 50.402344 28 52.910156 28 56 C 28 59.09375 30.507812 61.601562 33.601562 61.601562 Z M 33.601562 61.601562 " fill-opacity="1" fill-rule="nonzero"/></g></svg>