<svg xmlns="http://www.w3.org/2000/svg" xmlns:xlink="http://www.w3.org/1999/xlink" width="150" zoomAndPan="magnify" viewBox="0 0 112.5 112.499997" height="150" preserveAspectRatio="xMidYMid meet" version="1.0"><defs><clipPath id="b69ba47a02"><path d="M 0 8.726562 L 95 8.726562 L 95 103 L 0 103 Z M 0 8.726562 " clip-rule="nonzero"/></clipPath><clipPath id="539d9c609d"><path d="M 98 90 L 112 90 L 112 103.554688 L 98 103.554688 Z M 98 90 " clip-rule="nonzero"/></clipPath></defs><path fill="#0a66c2" d="M 106.003906 97.433594 C 106.242188 97.4375 106.472656 97.390625 106.695312 97.296875 C 106.917969 97.203125 107.113281 97.070312 107.277344 96.894531 C 107.441406 96.71875 107.566406 96.519531 107.652344 96.292969 C 107.734375 96.066406 107.769531 95.832031 107.753906 95.59375 C 107.753906 94.285156 106.96875 93.660156 105.355469 93.660156 L 102.75 93.660156 L 102.75 100.5 L 103.730469 100.5 L 103.730469 97.519531 L 104.933594 97.519531 L 104.960938 97.554688 L 106.832031 100.5 L 107.878906 100.5 L 105.867188 97.453125 Z M 104.871094 96.75 L 103.734375 96.75 L 103.734375 94.4375 L 105.175781 94.4375 C 105.917969 94.4375 106.765625 94.558594 106.765625 95.535156 C 106.765625 96.660156 105.90625 96.75 104.863281 96.75 " fill-opacity="1" fill-rule="nonzero"/><g clip-path="url(#b69ba47a02)"><path fill="#0a66c2" d="M 80.445312 88.863281 L 66.554688 88.863281 L 66.554688 67.039062 C 66.554688 61.835938 66.460938 55.136719 59.328125 55.136719 C 52.09375 55.136719 50.984375 60.804688 50.984375 66.660156 L 50.984375 88.859375 L 37.09375 88.859375 L 37.09375 43.984375 L 50.429688 43.984375 L 50.429688 50.117188 L 50.617188 50.117188 C 51.285156 48.972656 52.089844 47.9375 53.039062 47.011719 C 53.984375 46.085938 55.039062 45.304688 56.195312 44.667969 C 57.355469 44.027344 58.578125 43.558594 59.863281 43.25 C 61.152344 42.945312 62.453125 42.816406 63.773438 42.867188 C 77.855469 42.867188 80.453125 52.15625 80.453125 64.242188 Z M 21.417969 37.847656 C 20.886719 37.847656 20.363281 37.796875 19.84375 37.691406 C 19.324219 37.589844 18.820312 37.4375 18.332031 37.234375 C 17.84375 37.03125 17.378906 36.78125 16.9375 36.484375 C 16.496094 36.191406 16.089844 35.855469 15.714844 35.480469 C 15.339844 35.105469 15.007812 34.695312 14.710938 34.253906 C 14.417969 33.8125 14.171875 33.347656 13.96875 32.859375 C 13.765625 32.367188 13.613281 31.863281 13.507812 31.339844 C 13.40625 30.820312 13.351562 30.292969 13.351562 29.761719 C 13.351562 29.230469 13.40625 28.707031 13.507812 28.183594 C 13.609375 27.664062 13.765625 27.160156 13.964844 26.667969 C 14.167969 26.175781 14.417969 25.710938 14.710938 25.269531 C 15.003906 24.828125 15.339844 24.417969 15.714844 24.042969 C 16.085938 23.667969 16.496094 23.332031 16.933594 23.039062 C 17.375 22.742188 17.839844 22.492188 18.328125 22.289062 C 18.816406 22.085938 19.320312 21.933594 19.839844 21.832031 C 20.359375 21.726562 20.882812 21.675781 21.414062 21.675781 C 21.941406 21.675781 22.46875 21.726562 22.988281 21.828125 C 23.507812 21.933594 24.011719 22.085938 24.5 22.289062 C 24.988281 22.492188 25.453125 22.742188 25.894531 23.035156 C 26.332031 23.332031 26.742188 23.667969 27.113281 24.042969 C 27.488281 24.417969 27.824219 24.824219 28.117188 25.265625 C 28.410156 25.707031 28.660156 26.175781 28.863281 26.664062 C 29.066406 27.15625 29.21875 27.660156 29.324219 28.183594 C 29.425781 28.703125 29.476562 29.230469 29.476562 29.761719 C 29.476562 30.289062 29.425781 30.816406 29.324219 31.335938 C 29.21875 31.859375 29.066406 32.363281 28.863281 32.855469 C 28.660156 33.34375 28.414062 33.8125 28.121094 34.253906 C 27.824219 34.695312 27.492188 35.101562 27.117188 35.480469 C 26.742188 35.855469 26.335938 36.191406 25.894531 36.484375 C 25.457031 36.78125 24.992188 37.027344 24.503906 37.230469 C 24.011719 37.4375 23.507812 37.589844 22.988281 37.691406 C 22.46875 37.796875 21.945312 37.847656 21.417969 37.847656 M 28.363281 88.863281 L 14.457031 88.863281 L 14.457031 43.984375 L 28.363281 43.984375 Z M 87.371094 8.734375 L 7.476562 8.734375 C 7.027344 8.726562 6.582031 8.765625 6.140625 8.851562 C 5.699219 8.933594 5.269531 9.058594 4.851562 9.226562 C 4.4375 9.394531 4.039062 9.601562 3.664062 9.84375 C 3.285156 10.089844 2.9375 10.371094 2.617188 10.6875 C 2.296875 11 2.007812 11.34375 1.753906 11.714844 C 1.5 12.085938 1.285156 12.480469 1.109375 12.894531 C 0.929688 13.308594 0.796875 13.734375 0.703125 14.175781 C 0.609375 14.617188 0.5625 15.0625 0.554688 15.511719 L 0.554688 95.988281 C 0.5625 96.4375 0.609375 96.886719 0.703125 97.324219 C 0.796875 97.765625 0.929688 98.195312 1.105469 98.609375 C 1.285156 99.023438 1.5 99.417969 1.753906 99.789062 C 2.007812 100.160156 2.292969 100.503906 2.617188 100.816406 C 2.9375 101.132812 3.285156 101.414062 3.660156 101.660156 C 4.039062 101.90625 4.433594 102.113281 4.851562 102.28125 C 5.269531 102.449219 5.699219 102.574219 6.140625 102.65625 C 6.582031 102.742188 7.027344 102.78125 7.476562 102.773438 L 87.371094 102.773438 C 87.824219 102.78125 88.269531 102.742188 88.710938 102.660156 C 89.152344 102.578125 89.585938 102.453125 90.003906 102.285156 C 90.421875 102.117188 90.816406 101.910156 91.195312 101.664062 C 91.574219 101.417969 91.921875 101.136719 92.246094 100.824219 C 92.566406 100.507812 92.855469 100.164062 93.113281 99.792969 C 93.367188 99.421875 93.582031 99.027344 93.761719 98.613281 C 93.9375 98.199219 94.074219 97.769531 94.167969 97.328125 C 94.261719 96.886719 94.3125 96.441406 94.320312 95.988281 L 94.320312 15.507812 C 94.3125 15.054688 94.261719 14.609375 94.167969 14.167969 C 94.074219 13.726562 93.9375 13.296875 93.761719 12.882812 C 93.582031 12.46875 93.367188 12.078125 93.109375 11.703125 C 92.855469 11.332031 92.566406 10.988281 92.246094 10.675781 C 91.921875 10.359375 91.570312 10.082031 91.195312 9.835938 C 90.816406 9.589844 90.417969 9.382812 90 9.214844 C 89.582031 9.046875 89.152344 8.925781 88.710938 8.839844 C 88.269531 8.757812 87.824219 8.722656 87.371094 8.726562 " fill-opacity="1" fill-rule="nonzero"/></g><g clip-path="url(#539d9c609d)"><path fill="#0a66c2" d="M 104.988281 90.613281 C 104.710938 90.617188 104.433594 90.636719 104.15625 90.675781 C 103.882812 90.714844 103.609375 90.773438 103.339844 90.847656 C 103.074219 90.921875 102.808594 91.015625 102.554688 91.125 C 102.296875 91.234375 102.050781 91.359375 101.808594 91.5 C 101.570312 91.640625 101.339844 91.796875 101.121094 91.96875 C 100.898438 92.140625 100.691406 92.328125 100.496094 92.527344 C 100.300781 92.726562 100.121094 92.9375 99.953125 93.160156 C 99.785156 93.382812 99.628906 93.613281 99.492188 93.855469 C 99.355469 94.097656 99.234375 94.351562 99.128906 94.609375 C 99.023438 94.867188 98.9375 95.132812 98.867188 95.402344 C 98.792969 95.671875 98.742188 95.945312 98.707031 96.222656 C 98.671875 96.5 98.65625 96.777344 98.65625 97.058594 C 98.65625 97.339844 98.675781 97.617188 98.714844 97.894531 C 98.753906 98.167969 98.808594 98.441406 98.882812 98.710938 C 98.953125 98.980469 99.042969 99.246094 99.152344 99.503906 C 99.257812 99.761719 99.382812 100.011719 99.523438 100.253906 C 99.664062 100.492188 99.816406 100.726562 99.988281 100.945312 C 100.160156 101.167969 100.34375 101.375 100.539062 101.574219 C 100.738281 101.769531 100.945312 101.953125 101.167969 102.125 C 101.390625 102.292969 101.621094 102.449219 101.863281 102.585938 C 102.105469 102.726562 102.351562 102.847656 102.609375 102.957031 C 102.867188 103.0625 103.132812 103.152344 103.398438 103.222656 C 103.667969 103.296875 103.941406 103.351562 104.21875 103.386719 C 104.496094 103.421875 104.769531 103.441406 105.050781 103.441406 C 105.328125 103.441406 105.605469 103.421875 105.882812 103.386719 C 106.160156 103.351562 106.429688 103.296875 106.699219 103.222656 C 106.96875 103.152344 107.230469 103.0625 107.488281 102.957031 C 107.746094 102.847656 107.996094 102.726562 108.238281 102.585938 C 108.480469 102.449219 108.710938 102.292969 108.933594 102.125 C 109.152344 101.953125 109.363281 101.769531 109.558594 101.574219 C 109.757812 101.375 109.941406 101.167969 110.113281 100.945312 C 110.28125 100.726562 110.4375 100.492188 110.578125 100.253906 C 110.714844 100.011719 110.839844 99.761719 110.949219 99.503906 C 111.054688 99.246094 111.144531 98.980469 111.21875 98.710938 C 111.292969 98.441406 111.347656 98.167969 111.386719 97.894531 C 111.421875 97.617188 111.441406 97.339844 111.445312 97.058594 C 111.445312 96.78125 111.429688 96.5 111.394531 96.222656 C 111.359375 95.945312 111.304688 95.671875 111.234375 95.402344 C 111.164062 95.132812 111.078125 94.867188 110.972656 94.609375 C 110.867188 94.351562 110.746094 94.101562 110.605469 93.855469 C 110.46875 93.613281 110.316406 93.382812 110.148438 93.160156 C 109.980469 92.9375 109.800781 92.726562 109.605469 92.527344 C 109.40625 92.328125 109.199219 92.140625 108.980469 91.96875 C 108.761719 91.796875 108.53125 91.640625 108.292969 91.5 C 108.050781 91.359375 107.804688 91.234375 107.546875 91.125 C 107.289062 91.015625 107.027344 90.921875 106.757812 90.847656 C 106.492188 90.773438 106.21875 90.714844 105.941406 90.675781 C 105.667969 90.636719 105.390625 90.617188 105.113281 90.613281 L 104.988281 90.613281 M 104.988281 102.707031 C 104.621094 102.714844 104.253906 102.683594 103.894531 102.617188 C 103.53125 102.550781 103.179688 102.449219 102.835938 102.316406 C 102.492188 102.179688 102.167969 102.011719 101.859375 101.8125 C 101.550781 101.609375 101.261719 101.382812 100.996094 101.125 C 100.734375 100.871094 100.496094 100.589844 100.285156 100.285156 C 100.078125 99.980469 99.898438 99.660156 99.753906 99.320312 C 99.605469 98.984375 99.492188 98.632812 99.414062 98.273438 C 99.339844 97.910156 99.296875 97.546875 99.289062 97.175781 C 99.285156 96.808594 99.3125 96.441406 99.378906 96.078125 C 99.445312 95.714844 99.546875 95.363281 99.679688 95.019531 C 99.816406 94.675781 99.984375 94.347656 100.183594 94.039062 C 100.382812 93.726562 100.609375 93.441406 100.867188 93.175781 C 101.121094 92.910156 101.402344 92.671875 101.703125 92.460938 C 102.007812 92.25 102.328125 92.070312 102.664062 91.925781 C 103 91.777344 103.351562 91.664062 103.710938 91.585938 C 104.070312 91.507812 104.433594 91.46875 104.800781 91.460938 C 105.171875 91.453125 105.535156 91.484375 105.898438 91.550781 C 106.257812 91.617188 106.613281 91.71875 106.953125 91.851562 C 107.296875 91.988281 107.621094 92.15625 107.933594 92.355469 C 108.242188 92.558594 108.527344 92.785156 108.792969 93.042969 C 109.058594 93.296875 109.292969 93.578125 109.503906 93.882812 C 109.714844 94.1875 109.890625 94.507812 110.039062 94.84375 C 110.183594 95.183594 110.296875 95.535156 110.375 95.894531 C 110.453125 96.257812 110.496094 96.621094 110.5 96.992188 C 110.5 97.023438 110.5 97.054688 110.5 97.085938 C 110.507812 97.445312 110.480469 97.804688 110.417969 98.160156 C 110.355469 98.515625 110.257812 98.863281 110.128906 99.199219 C 109.996094 99.535156 109.835938 99.855469 109.640625 100.160156 C 109.449219 100.464844 109.226562 100.746094 108.976562 101.007812 C 108.730469 101.269531 108.457031 101.503906 108.160156 101.710938 C 107.867188 101.917969 107.554688 102.09375 107.222656 102.238281 C 106.894531 102.386719 106.554688 102.496094 106.203125 102.574219 C 105.851562 102.652344 105.496094 102.695312 105.132812 102.703125 L 104.988281 102.703125 " fill-opacity="1" fill-rule="nonzero"/></g></svg>