<svg xmlns="http://www.w3.org/2000/svg" xmlns:xlink="http://www.w3.org/1999/xlink" width="150" zoomAndPan="magnify" viewBox="0 0 112.5 112.499997" height="150" preserveAspectRatio="xMidYMid meet" version="1.0"><defs><clipPath id="2964aa3ea3"><path d="M 26 84 L 112.003906 84 L 112.003906 97 L 26 97 Z M 26 84 " clip-rule="nonzero"/></clipPath><clipPath id="df1404ca3b"><path d="M 0 81.660156 L 17.695312 81.660156 L 17.695312 98.898438 L 0 98.898438 Z M 0 81.660156 " clip-rule="nonzero"/></clipPath><clipPath id="d0a3374149"><path d="M 26 49 L 112.003906 49 L 112.003906 63 L 26 63 Z M 26 49 " clip-rule="nonzero"/></clipPath><clipPath id="a171993f40"><path d="M 26 15 L 112.003906 15 L 112.003906 29 L 26 29 Z M 26 15 " clip-rule="nonzero"/></clipPath><clipPath id="5e50aff51c"><path d="M 0 13.089844 L 18 13.089844 L 18 31 L 0 31 Z M 0 13.089844 " clip-rule="nonzero"/></clipPath></defs><g clip-path="url(#2964aa3ea3)"><path fill="#fff8ee" d="M 112.003906 90.492188 C 112.003906 86.949219 109.132812 84.078125 105.589844 84.078125 L 32.488281 84.078125 C 28.949219 84.078125 26.078125 86.949219 26.078125 90.492188 C 26.078125 94.03125 28.949219 96.902344 32.488281 96.902344 L 105.589844 96.902344 C 109.132812 96.902344 112.003906 94.03125 112.003906 90.492188 " fill-opacity="1" fill-rule="nonzero"/></g><g clip-path="url(#df1404ca3b)"><path fill="#fff8ee" d="M 8.550781 98.898438 L 8.976562 98.898438 C 13.699219 98.898438 17.527344 95.070312 17.527344 90.347656 C 17.527344 85.625 13.699219 81.796875 8.976562 81.796875 L 8.550781 81.796875 C 3.828125 81.796875 0 85.625 0 90.347656 C 0 95.070312 3.828125 98.898438 8.550781 98.898438 " fill-opacity="1" fill-rule="nonzero"/></g><g clip-path="url(#d0a3374149)"><path fill="#fff8ee" d="M 105.589844 49.664062 L 32.488281 49.664062 C 28.949219 49.664062 26.078125 52.535156 26.078125 56.078125 C 26.078125 59.621094 28.949219 62.492188 32.488281 62.492188 L 105.589844 62.492188 C 109.132812 62.492188 112.003906 59.621094 112.003906 56.078125 C 112.003906 52.535156 109.132812 49.664062 105.589844 49.664062 " fill-opacity="1" fill-rule="nonzero"/></g><path fill="#fff8ee" d="M 8.976562 47.527344 L 8.550781 47.527344 C 3.828125 47.527344 0 51.355469 0 56.078125 C 0 60.800781 3.828125 64.628906 8.550781 64.628906 L 8.976562 64.628906 C 13.699219 64.628906 17.527344 60.800781 17.527344 56.078125 C 17.527344 51.355469 13.699219 47.527344 8.976562 47.527344 " fill-opacity="1" fill-rule="nonzero"/><g clip-path="url(#a171993f40)"><path fill="#fff8ee" d="M 26.078125 21.664062 C 26.078125 25.207031 28.949219 28.078125 32.488281 28.078125 L 105.589844 28.078125 C 109.132812 28.078125 112.003906 25.207031 112.003906 21.664062 C 112.003906 18.125 109.132812 15.253906 105.589844 15.253906 L 32.488281 15.253906 C 28.949219 15.253906 26.078125 18.125 26.078125 21.664062 " fill-opacity="1" fill-rule="nonzero"/></g><g clip-path="url(#5e50aff51c)"><path fill="#fff8ee" d="M 8.976562 13.117188 L 8.550781 13.117188 C 3.828125 13.117188 0 16.945312 0 21.664062 C 0 26.386719 3.828125 30.214844 8.550781 30.214844 L 8.976562 30.214844 C 13.699219 30.214844 17.527344 26.386719 17.527344 21.664062 C 17.527344 16.945312 13.699219 13.117188 8.976562 13.117188 " fill-opacity="1" fill-rule="nonzero"/></g></svg>