<svg xmlns="http://www.w3.org/2000/svg" xmlns:xlink="http://www.w3.org/1999/xlink" width="150" zoomAndPan="magnify" viewBox="0 0 112.5 112.499997" height="150" preserveAspectRatio="xMidYMid meet" version="1.0"><defs><clipPath id="78aac79765"><path d="M 0 1.144531 L 112 1.144531 L 112 110.90625 L 0 110.90625 Z M 0 1.144531 " clip-rule="nonzero"/></clipPath></defs><g clip-path="url(#78aac79765)"><path fill="#24292f" d="M 55.835938 1.144531 C 24.960938 1.144531 0 26.296875 0 57.414062 C 0 82.289062 15.992188 103.347656 38.179688 110.796875 C 40.953125 111.359375 41.96875 109.589844 41.96875 108.097656 C 41.96875 106.792969 41.875 102.320312 41.875 97.664062 C 26.34375 101.015625 23.109375 90.953125 23.109375 90.953125 C 20.613281 84.433594 16.917969 82.757812 16.917969 82.757812 C 11.832031 79.308594 17.285156 79.308594 17.285156 79.308594 C 22.925781 79.683594 25.882812 85.085938 25.882812 85.085938 C 30.875 93.65625 38.917969 91.234375 42.152344 89.742188 C 42.613281 86.109375 44.09375 83.59375 45.667969 82.199219 C 33.277344 80.894531 20.246094 76.046875 20.246094 54.433594 C 20.246094 48.285156 22.460938 43.253906 25.976562 39.339844 C 25.421875 37.945312 23.480469 32.167969 26.53125 24.433594 C 26.53125 24.433594 31.246094 22.941406 41.875 30.210938 C 46.445312 28.972656 51.097656 28.351562 55.835938 28.347656 C 60.546875 28.347656 65.355469 29 69.792969 30.210938 C 80.421875 22.941406 85.136719 24.433594 85.136719 24.433594 C 88.1875 32.167969 86.246094 37.945312 85.691406 39.339844 C 89.296875 43.253906 91.421875 48.285156 91.421875 54.433594 C 91.421875 76.046875 78.390625 80.800781 65.910156 82.199219 C 67.945312 83.96875 69.699219 87.320312 69.699219 92.632812 C 69.699219 100.179688 69.609375 106.234375 69.609375 108.097656 C 69.609375 109.589844 70.625 111.359375 73.398438 110.800781 C 95.582031 103.34375 111.574219 82.289062 111.574219 57.414062 C 111.667969 26.296875 86.617188 1.144531 55.835938 1.144531 Z M 55.835938 1.144531 " fill-opacity="1" fill-rule="evenodd"/></g></svg>