<svg xmlns="http://www.w3.org/2000/svg" xmlns:xlink="http://www.w3.org/1999/xlink" width="200" zoomAndPan="magnify" viewBox="0 0 150 74.999997" height="100" preserveAspectRatio="xMidYMid meet" version="1.0"><defs><g/><clipPath id="3c7f99272e"><path d="M 115.832031 19.140625 L 150 19.140625 L 150 53.640625 L 115.832031 53.640625 Z M 115.832031 19.140625 " clip-rule="nonzero"/></clipPath><clipPath id="43c59c528c"><path d="M 139 43 L 149 43 L 149 53.640625 L 139 53.640625 Z M 139 43 " clip-rule="nonzero"/></clipPath><clipPath id="046ac85e71"><path d="M 0 15.464844 L 19.191406 15.464844 L 19.191406 56.980469 L 0 56.980469 Z M 0 15.464844 " clip-rule="nonzero"/></clipPath></defs><g clip-path="url(#3c7f99272e)"><path fill="#fff8ee" d="M 132.894531 53.199219 C 132.84375 53.199219 132.816406 53.199219 132.804688 53.199219 C 123.449219 53.199219 115.832031 45.582031 115.832031 36.21875 C 115.832031 26.855469 123.449219 19.242188 132.8125 19.242188 C 139.390625 19.242188 144.660156 22.339844 147.652344 27.964844 C 149.703125 32.121094 149.636719 36.339844 147.46875 39.542969 C 145.652344 42.234375 142.53125 43.820312 139.515625 43.589844 C 136.550781 43.363281 134.105469 41.511719 132.628906 38.378906 C 132.53125 38.171875 132.617188 37.921875 132.828125 37.824219 C 133.035156 37.726562 133.285156 37.816406 133.382812 38.023438 C 134.726562 40.875 136.925781 42.554688 139.578125 42.757812 C 142.300781 42.96875 145.125 41.523438 146.777344 39.074219 C 148.773438 36.128906 148.820312 32.214844 146.910156 28.347656 C 144.074219 23.015625 139.066406 20.074219 132.8125 20.074219 C 123.910156 20.074219 116.667969 27.316406 116.667969 36.21875 C 116.667969 45.121094 123.910156 52.363281 132.8125 52.363281 C 132.855469 52.367188 136.703125 52.410156 140.085938 50.691406 C 140.289062 50.585938 140.542969 50.667969 140.648438 50.871094 C 140.75 51.078125 140.667969 51.328125 140.460938 51.433594 C 137.144531 53.121094 133.523438 53.199219 132.894531 53.199219 " fill-opacity="1" fill-rule="nonzero"/></g><path fill="#fff8ee" d="M 132.929688 45.488281 C 132.289062 45.488281 131.628906 45.414062 130.957031 45.261719 C 127.378906 44.464844 124.351562 41.664062 123.425781 38.296875 C 122.324219 34.304688 124.097656 29.863281 128.410156 25.792969 L 128.773438 25.449219 L 129.046875 25.871094 C 130.414062 27.976562 132.65625 29.078125 134.824219 30.144531 C 138.484375 31.945312 141.941406 33.648438 140.191406 39.769531 C 140.128906 39.988281 139.894531 40.117188 139.675781 40.054688 C 139.453125 39.992188 139.324219 39.761719 139.386719 39.539062 C 140.949219 34.089844 138.082031 32.679688 134.453125 30.894531 C 132.324219 29.847656 130.128906 28.765625 128.632812 26.738281 C 124.808594 30.488281 123.246094 34.5 124.230469 38.074219 C 125.074219 41.152344 127.851562 43.714844 131.136719 44.449219 C 133.738281 45.027344 136.097656 44.351562 137.605469 42.585938 C 137.753906 42.410156 138.019531 42.390625 138.195312 42.539062 C 138.367188 42.691406 138.390625 42.953125 138.238281 43.128906 C 136.921875 44.671875 135.046875 45.488281 132.929688 45.488281 " fill-opacity="1" fill-rule="nonzero"/><g clip-path="url(#43c59c528c)"><path fill="#fff8ee" d="M 140.851562 50.671875 C 141.734375 52.257812 143.742188 52.832031 145.324219 51.949219 L 147.472656 50.753906 L 144.273438 45 L 142.128906 46.195312 C 141.359375 46.621094 140.804688 47.324219 140.5625 48.167969 C 140.320312 49.015625 140.425781 49.902344 140.851562 50.671875 L 140.488281 50.875 Z M 143.734375 53.195312 C 142.285156 53.195312 140.875 52.429688 140.121094 51.078125 C 139.585938 50.113281 139.457031 49 139.761719 47.941406 C 140.0625 46.882812 140.757812 46.003906 141.722656 45.464844 L 144.597656 43.867188 L 148.609375 51.078125 L 145.730469 52.675781 C 145.097656 53.03125 144.414062 53.195312 143.734375 53.195312 " fill-opacity="1" fill-rule="nonzero"/></g><path fill="#fff8ee" d="M 145.359375 46.511719 C 145.214844 46.511719 145.070312 46.433594 144.996094 46.300781 C 144.882812 46.097656 144.957031 45.84375 145.15625 45.730469 L 147.546875 44.402344 C 147.75 44.289062 148.003906 44.363281 148.113281 44.5625 C 148.226562 44.765625 148.15625 45.019531 147.953125 45.132812 L 145.5625 46.460938 C 145.5 46.496094 145.429688 46.511719 145.359375 46.511719 " fill-opacity="1" fill-rule="nonzero"/><path fill="#fff8ee" d="M 147.117188 49.671875 C 146.972656 49.671875 146.828125 49.59375 146.753906 49.457031 C 146.640625 49.257812 146.714844 49.003906 146.914062 48.890625 L 149.304688 47.5625 C 149.507812 47.449219 149.761719 47.523438 149.871094 47.722656 C 149.984375 47.925781 149.910156 48.179688 149.710938 48.289062 L 147.320312 49.617188 C 147.253906 49.65625 147.1875 49.671875 147.117188 49.671875 " fill-opacity="1" fill-rule="nonzero"/><path fill="#fff8ee" d="M 144.511719 49.054688 C 144.367188 49.054688 144.222656 48.976562 144.148438 48.839844 L 142.347656 45.597656 C 142.234375 45.394531 142.304688 45.140625 142.507812 45.03125 C 142.710938 44.917969 142.960938 44.992188 143.074219 45.191406 L 144.878906 48.433594 C 144.988281 48.632812 144.914062 48.886719 144.714844 49 C 144.652344 49.035156 144.582031 49.054688 144.511719 49.054688 " fill-opacity="1" fill-rule="nonzero"/><g clip-path="url(#046ac85e71)"><path fill="#fff8ee" d="M 0 15.464844 L 19.191406 15.464844 L 19.191406 56.992188 L 0 56.992188 Z M 0 15.464844 " fill-opacity="1" fill-rule="nonzero"/></g><g fill="#fff8ed" fill-opacity="1"><g transform="translate(21.576318, 56.246335)"><g><path d="M 5.421875 0 L 0.515625 -39.828125 L 8.109375 -39.828125 L 11.015625 -12.734375 L 13.609375 -39.828125 L 21.21875 -39.828125 L 16.296875 0 Z M 5.421875 0 "/></g></g></g><g fill="#fff8ed" fill-opacity="1"><g transform="translate(43.296364, 56.246335)"><g><path d="M 11.25 0.375 C 8.039062 0.375 5.601562 -0.601562 3.9375 -2.5625 C 2.269531 -4.53125 1.4375 -7.289062 1.4375 -10.84375 L 1.4375 -29.78125 C 1.4375 -33.207031 2.269531 -35.789062 3.9375 -37.53125 C 5.601562 -39.28125 8.039062 -40.15625 11.25 -40.15625 C 14.46875 -40.15625 16.910156 -39.28125 18.578125 -37.53125 C 20.242188 -35.789062 21.078125 -33.207031 21.078125 -29.78125 L 21.078125 -10.84375 C 21.078125 -7.257812 20.242188 -4.492188 18.578125 -2.546875 C 16.910156 -0.597656 14.46875 0.375 11.25 0.375 Z M 11.25 -6.953125 C 11.957031 -6.953125 12.4375 -7.257812 12.6875 -7.875 C 12.9375 -8.488281 13.0625 -9.351562 13.0625 -10.46875 L 13.0625 -29.921875 C 13.0625 -30.785156 12.941406 -31.484375 12.703125 -32.015625 C 12.472656 -32.554688 12.003906 -32.828125 11.296875 -32.828125 C 9.972656 -32.828125 9.3125 -31.828125 9.3125 -29.828125 L 9.3125 -10.421875 C 9.3125 -9.273438 9.445312 -8.410156 9.71875 -7.828125 C 10 -7.242188 10.507812 -6.953125 11.25 -6.953125 Z M 11.25 -6.953125 "/></g></g></g><g fill="#fff8ed" fill-opacity="1"><g transform="translate(65.803708, 56.246335)"><g><path d="M 1.765625 0 L 1.765625 -39.78125 L 9.71875 -39.78125 L 9.71875 -6.765625 L 17.921875 -6.765625 L 17.921875 0 Z M 1.765625 0 "/></g></g></g><g fill="#fff8ed" fill-opacity="1"><g transform="translate(84.189336, 56.246335)"><g><path d="M 5.1875 0 L 5.1875 -32.140625 L 0.46875 -32.140625 L 0.46875 -39.78125 L 17.875 -39.78125 L 17.875 -32.140625 L 13.15625 -32.140625 L 13.15625 0 Z M 5.1875 0 "/></g></g></g><g fill="#5a955e" fill-opacity="1"><g transform="translate(15.611743, 49.606296)"><g><path d="M 0 -1.671875 L -10.40625 -1.671875 L -10.40625 -0.15625 L -12.875 -0.15625 L -12.875 -5.78125 L -10.40625 -5.78125 L -10.40625 -4.25 L 0 -4.25 Z M 0 -1.671875 "/></g></g></g><g fill="#5a955e" fill-opacity="1"><g transform="translate(15.611743, 43.675684)"><g><path d="M 0 -0.5625 L -12.875 -0.5625 L -12.875 -5.71875 L -10.390625 -5.71875 L -10.390625 -3.1875 L -7.875 -3.1875 L -7.875 -5.625 L -5.453125 -5.625 L -5.453125 -3.1875 L -2.5 -3.1875 L -2.5 -5.890625 L 0 -5.890625 Z M 0 -0.5625 "/></g></g></g><g fill="#5a955e" fill-opacity="1"><g transform="translate(15.611743, 37.505453)"><g><path d="M 0.125 -3.5625 C 0.125 -2.625 -0.164062 -1.875 -0.75 -1.3125 C -1.34375 -0.75 -2.15625 -0.46875 -3.1875 -0.46875 L -9.125 -0.46875 C -10.40625 -0.46875 -11.367188 -0.722656 -12.015625 -1.234375 C -12.660156 -1.742188 -12.984375 -2.539062 -12.984375 -3.625 C -12.984375 -4.570312 -12.722656 -5.332031 -12.203125 -5.90625 C -11.691406 -6.488281 -10.945312 -6.78125 -9.96875 -6.78125 L -7.75 -6.78125 L -7.75 -4.21875 L -9.65625 -4.21875 C -10.019531 -4.21875 -10.269531 -4.171875 -10.40625 -4.078125 C -10.550781 -3.992188 -10.625 -3.84375 -10.625 -3.625 C -10.625 -3.394531 -10.539062 -3.238281 -10.375 -3.15625 C -10.21875 -3.070312 -9.988281 -3.03125 -9.6875 -3.03125 L -3.21875 -3.03125 C -2.882812 -3.03125 -2.640625 -3.078125 -2.484375 -3.171875 C -2.328125 -3.273438 -2.25 -3.425781 -2.25 -3.625 C -2.25 -4.019531 -2.570312 -4.21875 -3.21875 -4.21875 L -5.546875 -4.21875 L -5.546875 -6.8125 L -3.109375 -6.8125 C -0.953125 -6.8125 0.125 -5.726562 0.125 -3.5625 Z M 0.125 -3.5625 "/></g></g></g><g fill="#5a955e" fill-opacity="1"><g transform="translate(15.611743, 30.406689)"><g><path d="M 0 -0.5625 L -12.875 -0.5625 L -12.875 -3.125 L -8.265625 -3.125 L -8.265625 -4.34375 L -12.875 -4.34375 L -12.875 -6.90625 L 0 -6.90625 L 0 -4.34375 L -5.84375 -4.34375 L -5.84375 -3.125 L 0 -3.125 Z M 0 -0.5625 "/></g></g></g></svg>